# xmcd CD database file
#
# Track frame offsets:
#	150
#	22587
#	43728
#	67924
#	88570
#	110836
#	132388
#	159029
#
# Disc length: 2357 seconds
#
# Revision: 1
# Processed by: cddbd v1.5.1PL2 Copyright (c) Steve Scherf et al.
# Submitted via: CDex 1.51
#
DISCID=59093308
DTITLE=ayumi hamasaki - Memorial address
DYEAR=2003
DGENRE=JPop
TTITLE0=ANGEL'S SONG
TTITLE1=Greatful days
TTITLE2=Because of You
TTITLE3=ourselves
TTITLE4=HANABI-episode II-
TTITLE5=No way to say
TTITLE6=forgiveness
TTITLE7=Memorial address
EXTD=YEAR: 2003
EXTT0=
EXTT1=
EXTT2=
EXTT3=
EXTT4=
EXTT5=
EXTT6=
EXTT7=
PLAYORDER=
